<svg width="448" height="512" viewBox="0 0 448 512" fill="none" xmlns="http://www.w3.org/2000/svg">
<g clip-path="url(#clip0_907_73)">
<path d="M224.1 141C160.5 141 109.2 192.3 109.2 255.9C109.2 319.5 160.5 370.8 224.1 370.8C287.7 370.8 339 319.5 339 255.9C339 192.3 287.7 141 224.1 141ZM224.1 330.6C183 330.6 149.4 297.1 149.4 255.9C149.4 214.7 182.9 181.2 224.1 181.2C265.3 181.2 298.8 214.7 298.8 255.9C298.8 297.1 265.2 330.6 224.1 330.6ZM370.5 136.3C370.5 151.2 358.5 163.1 343.7 163.1C328.8 163.1 316.9 151.1 316.9 136.3C316.9 121.5 328.9 109.5 343.7 109.5C358.5 109.5 370.5 121.5 370.5 136.3ZM446.6 163.5C444.9 127.6 436.7 95.8002 410.4 69.6002C384.2 43.4002 352.4 35.2002 316.5 33.4002C279.5 31.3002 168.6 31.3002 131.6 33.4002C95.8001 35.1002 64 43.3002 37.7001 69.5002C11.4001 95.7002 3.30005 127.5 1.50005 163.4C-0.599951 200.4 -0.599951 311.3 1.50005 348.3C3.20005 384.2 11.4001 416 37.7001 442.2C64 468.4 95.7001 476.6 131.6 478.4C168.6 480.5 279.5 480.5 316.5 478.4C352.4 476.7 384.2 468.5 410.4 442.2C436.6 416 444.8 384.2 446.6 348.3C448.7 311.3 448.7 200.5 446.6 163.5ZM398.8 388C391 407.6 375.9 422.7 356.2 430.6C326.7 442.3 256.7 439.6 224.1 439.6C191.5 439.6 121.4 442.2 92 430.6C72.4 422.8 57.3001 407.7 49.4001 388C37.7001 358.5 40.4001 288.5 40.4001 255.9C40.4001 223.3 37.8001 153.2 49.4001 123.8C57.2001 104.2 72.3 89.1002 92 81.2002C121.5 69.5002 191.5 72.2002 224.1 72.2002C256.7 72.2002 326.8 69.6002 356.2 81.2002C375.8 89.0002 390.9 104.1 398.8 123.8C410.5 153.3 407.8 223.3 407.8 255.9C407.8 288.5 410.5 358.6 398.8 388Z" fill="#FFF8F8"/>
</g>
<defs>
<clipPath id="clip0_907_73">
<rect width="448" height="512" fill="white"/>
</clipPath>
</defs>
</svg>
